<svg xmlns="http://www.w3.org/2000/svg" viewBox="0 0 143.66 150.46"><defs><style>.cls-1{fill:#121228;}</style></defs><g id="Capa_2" data-name="Capa 2"><g id="Logo5"><circle class="cls-1" cx="50.61" cy="136.67" r="6.57"/><circle class="cls-1" cx="6.57" cy="104.71" r="6.57"/><path class="cls-1" d="M59,107H10.67a1.51,1.51,0,0,1-1.51-1.51v-1.63a1.5,1.5,0,0,1,1.51-1.5h3.18c3.29,0,41.84,0,45.18,0a1.53,1.53,0,0,1,1.06.44,1.46,1.46,0,0,1,.45,1.06v1.63A1.52,1.52,0,0,1,59,107Z"/><path class="cls-1" d="M11.77,100.69c.1,0,.47,1,1.55,1.46.45.18.82.15.81.21a1.6,1.6,0,0,1-1.43,0A1.82,1.82,0,0,1,11.77,100.69Z"/><path class="cls-1" d="M12.05,108.21c.12.06.45-.88,1.37-1.17a3.68,3.68,0,0,1,.81-.09,1.54,1.54,0,0,0-1.57-.08A1.33,1.33,0,0,0,12.05,108.21Z"/><circle class="cls-1" cx="6.57" cy="48.6" r="6.57"/><path class="cls-1" d="M34.34,50.85H9.92c-.42,0-.76-.67-.76-1.5V47.72c0-.83.34-1.51.76-1.51H34.34s.32,0,.53.44a2.42,2.42,0,0,1,.23,1.07v1.63C35.1,50.18,34.76,50.85,34.34,50.85Z"/><path class="cls-1" d="M11.77,44.58c.1-.06.47,1.05,1.55,1.46.45.17.82.15.81.21a1.62,1.62,0,0,1-1.43,0A1.81,1.81,0,0,1,11.77,44.58Z"/><path class="cls-1" d="M12.05,52.1c.12.06.45-.88,1.37-1.17a4.15,4.15,0,0,1,.81-.1,1.57,1.57,0,0,0-1.57-.07A1.33,1.33,0,0,0,12.05,52.1Z"/><path class="cls-1" d="M30.46,61.21V36.79c0-.42.67-.76,1.5-.76h1.63c.83,0,1.51.34,1.51.76V61.21s0,.32-.44.53a2.42,2.42,0,0,1-1.07.23H32C31.13,62,30.46,61.63,30.46,61.21Z"/><path class="cls-1" d="M38.34,72,30.48,61.46c-.13-.18.3-.73,1-1.23l1.31-1c.66-.49,1.31-.75,1.45-.57l.52.69c.53.72,6.79,9.1,7.34,9.82,0,0,.09.15-.18.5a4.7,4.7,0,0,1-.78.73l-1.31,1C39.12,71.9,38.48,72.15,38.34,72Z"/><circle class="cls-1" cx="31.1" cy="19.35" r="6.57"/><path class="cls-1" d="M58.87,21.61H34.45c-.42,0-.76-.68-.76-1.51V18.47c0-.83.34-1.5.76-1.5H58.87c.05,0,.32,0,.54.44a2.52,2.52,0,0,1,.22,1.06V20.1C59.63,20.93,59.29,21.61,58.87,21.61Z"/><path class="cls-1" d="M36.31,15.33c.1-.05.47,1,1.54,1.47.45.17.82.14.81.2a1.6,1.6,0,0,1-1.43,0A1.78,1.78,0,0,1,36.31,15.33Z"/><path class="cls-1" d="M36.58,22.85c.13.07.46-.88,1.37-1.17a4.68,4.68,0,0,1,.81-.09,1.54,1.54,0,0,0-1.57-.08A1.34,1.34,0,0,0,36.58,22.85Z"/><circle class="cls-1" cx="29.87" cy="120.01" r="6.57"/><path class="cls-1" d="M59.71,122.27H33.28c-.45,0-.82-.68-.82-1.51v-1.63c0-.83.37-1.5.82-1.5H59.71c.06,0,.35,0,.58.44a2.24,2.24,0,0,1,.25,1.06v1.63C60.54,121.59,60.17,122.27,59.71,122.27Z"/><path class="cls-1" d="M35.07,116c.1,0,.47,1.05,1.55,1.47.44.17.81.14.81.2a1.61,1.61,0,0,1-1.43,0A1.78,1.78,0,0,1,35.07,116Z"/><path class="cls-1" d="M35.35,123.51c.12.07.45-.88,1.36-1.17a4.74,4.74,0,0,1,.82-.09,1.56,1.56,0,0,0-1.58-.08A1.34,1.34,0,0,0,35.35,123.51Z"/><circle class="cls-1" cx="52.12" cy="50.68" r="6.57"/><path class="cls-1" d="M49.86,92.51V54.45a1.37,1.37,0,0,1,1.5-1.18H53a1.37,1.37,0,0,1,1.5,1.18V92.51a1.08,1.08,0,0,1-.44.84A1.69,1.69,0,0,1,53,93.7H51.36A1.37,1.37,0,0,1,49.86,92.51Z"/><path class="cls-1" d="M56.14,55.88c0,.1-1,.47-1.47,1.55-.17.45-.15.81-.2.81a1.6,1.6,0,0,1,0-1.43A1.81,1.81,0,0,1,56.14,55.88Z"/><path class="cls-1" d="M48.61,56.16c-.06.12.89.45,1.18,1.37a4.59,4.59,0,0,1,.09.81A1.56,1.56,0,0,0,50,56.77,1.35,1.35,0,0,0,48.61,56.16Z"/><path class="cls-1" d="M50.18,89.06H60.51c.18,0,.33.67.33,1.5v1.63c0,.84-.15,1.51-.33,1.51H50.18s-.13,0-.23-.44a6.11,6.11,0,0,1-.09-1.07V90.56C49.86,89.73,50,89.06,50.18,89.06Z"/><path class="cls-1" d="M39.74,92.77,15.56,68.6a1.36,1.36,0,0,1,.31-1.82L17,65.63a1.33,1.33,0,0,1,1.81-.31l1.6,1.59L43,89.49a.92.92,0,0,1,.22.84,1.87,1.87,0,0,1-.53,1l-1.15,1.15A1.34,1.34,0,0,1,39.74,92.77Z"/><path class="cls-1" d="M18.46,69.72H1.12c-.29,0-.54-.67-.54-1.51V66.58c0-.83.25-1.5.54-1.5H18.46s.23,0,.38.44A3.2,3.2,0,0,1,19,66.58v1.63C19,69.05,18.76,69.72,18.46,69.72Z"/><path class="cls-1" d="M38.62,102.14V90.36c0-.2.67-.36,1.5-.36h1.64c.83,0,1.5.16,1.5.36v11.78s0,.15-.44.26a5.15,5.15,0,0,1-1.06.1H40.12C39.29,102.5,38.62,102.34,38.62,102.14Z"/><path class="cls-1" d="M71.61,131.66h0c0,4.1.05,8.2,0,12.31a3.72,3.72,0,0,0,1.23,2.95c4.72,4.72,14.51,4.74,19.61,0,.68-.64,1.13-1.31,2.41-.95,6.08,1.7,12-.66,14.44-6.42,1.31-3.1,3-3.93,6-4.29a14.29,14.29,0,0,0,11.87-10.57c.36-1.72.17-2.51-1.85-2.36-2.24.17-4.51-.08-6.75.08a6.2,6.2,0,0,1-5.08-2.11c-8-7.68-15.62-15.78-23.44-23.66a3.72,3.72,0,0,0-2.88-1.42c-4.66.08-9.33.07-14,0-1.27,0-1.65.37-1.63,1.64.08,4.18.11,8.37,0,12.55,0,1.55.52,1.9,1.93,1.88q5.31-.09,10.62,0a4.3,4.3,0,0,0,3-1.11,9.9,9.9,0,0,1,9.69-1.9,11.12,11.12,0,0,1,7.63,10.84,10.51,10.51,0,0,1-7.56,10c-4.35,1.43-8.85-.22-11.84-4.26a11.68,11.68,0,0,1-2-5.83c-.14-1.25-.51-1.78-1.89-1.72a68.94,68.94,0,0,1-7.47,0c-1.76-.1-2.14.58-2.09,2.21C71.68,123.61,71.61,127.63,71.61,131.66Z"/><path class="cls-1" d="M140.63,89.07c4.67-7.12,3.89-15-2-21.17-1-1.08-2.86-2-3-3.18s1.31-2.61,2-4c5.53-10.53.34-23.58-10.83-26.33-3.19-.79-3.51-2.11-3.66-4.89-.7-13-11-19.71-21.06-19.16-1.89.11-4.11,1.57-5.51.94s-1.84-3.19-2.89-4.78c-4.41-6.61-12.41-8.46-19-4.41C73.2,3,71.63,4,71.62,6.12c0,2.82-.09,5.63-.1,8.45,0,.57-.29,1.39.73,1.46s1.68-.13,1.76-1.17a5.25,5.25,0,0,1,1.55-3.44A6.78,6.78,0,0,1,84.35,11a6.76,6.76,0,0,1,1.18,8.73A6.58,6.58,0,0,1,77,21.61c-1.88-1-5.31.91-5.32,3.06,0,5.31,0,10.62,0,15.93V52.67c0,5.78,0,5.82,5.88,5.79,1.3,0,2.72.5,3.87-.71q5.91-6.2,11.9-12.31c.72-.74.73-1.14-.1-1.9a10.24,10.24,0,0,1-3-11,11.22,11.22,0,0,1,13.6-7.75,11.06,11.06,0,0,1,7.49,13.3c-1.35,5.08-5,7.64-9.93,8.66a5.06,5.06,0,0,0-2.83,1.56c-3.77,4-7.71,7.78-11.3,11.89-2.73,3.13-5.73,4.87-10,4.1-1.25-.23-2.58,0-3.85-.07s-1.74.44-1.73,1.78c.06,7.16.08,14.32,0,21.48,0,1.63.51,2,2,2,5.47-.08,11,0,16.42-.06A3.66,3.66,0,0,1,93,90.67q11.77,12.27,23.63,24.46a4.88,4.88,0,0,0,3,1.81c15.56,1.47,25.92-10.51,20.53-24.38A3.33,3.33,0,0,1,140.63,89.07ZM121.85,99.79c-2.9.58-6.92-2.1-7.38-5.2a4.24,4.24,0,0,0-1.59-2.71c-2.62-2.49-5.1-5.13-7.69-7.65a2.92,2.92,0,0,1-1-2.57,1.92,1.92,0,0,0,0-.24c0-3.86-.94-8.1.35-11.47s4.76-5.7,7.39-8.4a6.08,6.08,0,0,0,2-4.42,6.36,6.36,0,0,1,7.08-6,6.69,6.69,0,0,1,5.84,7.49c-.55,3.78-4,6.66-7.45,5.86a2.75,2.75,0,0,0-3.2,1.14c-1.15,1.34-2.52,2.49-3.74,3.76-3.4,3.51-2.84,1.91-2.83,7.3-.69,2.37.64,4.32,2.72,6a17.47,17.47,0,0,1,1.88,1.87c1.67,1.81,2.91,3.59,6.22,2.46s6.25,1.62,6.88,5.56C127.8,95.74,125.22,99.12,121.85,99.79Z"/></g></g></svg>